<svg id="Calque_1" data-name="Calque 1" xmlns="http://www.w3.org/2000/svg" viewBox="0 0 716.67 716.67"><defs><style>.cls-1{fill:none;stroke:#afafaf;stroke-linecap:round;stroke-linejoin:round;stroke-width:50px;}</style></defs><path class="cls-1" d="M300,733.33H500c166.67,0,233.33-66.66,233.33-233.33V300c0-166.67-66.66-233.33-233.33-233.33H300C133.33,66.67,66.67,133.33,66.67,300V500C66.67,666.67,133.33,733.33,300,733.33Z" transform="translate(-41.67 -41.67)"/><path class="cls-1" d="M223.31,308.66,400,411,575.31,309.33" transform="translate(-41.67 -41.67)"/><path class="cls-1" d="M400,592.33V410.66" transform="translate(-41.67 -41.67)"/><path class="cls-1" d="M358.68,209.66,252,269c-24,13.33-44,47-44,74.66v113c0,27.67,19.66,61.34,44,74.67l106.67,59.33c22.66,12.67,60,12.67,83,0l106.67-59.33c24-13.33,44-47,44-74.67V343.33c0-27.67-19.66-61.34-44-74.67L441.67,209.33C418.67,196.66,381.34,196.66,358.68,209.66Z" transform="translate(-41.67 -41.67)"/></svg>