<?xml version="1.0" encoding="utf-8"?>
<!-- Generator: Adobe Illustrator 24.1.3, SVG Export Plug-In . SVG Version: 6.00 Build 0)  -->
<svg version="1.1" id="Calque_3" xmlns="http://www.w3.org/2000/svg" xmlns:xlink="http://www.w3.org/1999/xlink" x="0px" y="0px"
	 viewBox="0 0 701.7 701.7" style="enable-background:new 0 0 701.7 701.7;" xml:space="preserve">
<style type="text/css">
	.st0{display:none;fill:none;stroke:#AFAFAF;stroke-width:35;stroke-linecap:round;stroke-linejoin:round;}
	.st1{opacity:0.59;fill:#B8B8B8;}
	.st2{opacity:0.59;fill:#6B6B6B;}
	.st3{opacity:0.59;fill:#878787;}
	.st4{opacity:0.59;fill:#B3B3B3;}
</style>
<path class="st0" d="M250.8,684.2h200c166.7,0,233.3-66.7,233.3-233.3v-200c0-166.7-66.7-233.3-233.3-233.3h-200
	C84.2,17.5,17.5,84.2,17.5,250.8v200C17.5,617.5,84.2,684.2,250.8,684.2z"/>
<path class="st1" d="M173.5,598L173.5,598z"/>
<polygon class="st2" points="409.2,429 409.2,519.9 383.5,501.6 383.5,436.3 "/>
<polygon class="st3" points="449.8,417.4 449.8,508.3 409.2,519.9 409.2,429 "/>
<polygon class="st4" points="449.8,29.2 409.2,40.8 205.8,98.8 165.2,110.3 139.5,92.1 180,80.5 383.5,22.5 424,10.9 "/>
<polygon class="st3" points="205.8,379 205.8,577.9 165.2,589.4 165.2,350.3 "/>
<polygon class="st2" points="314.5,413 314.5,695.2 288.8,676.9 288.8,437.7 205.8,379 165.2,350.3 165.2,589.4 139.5,571.2 
	139.5,92.1 165.2,110.3 165.2,307.3 "/>
<polygon class="st3" points="599.1,331.9 599.1,614 558.5,625.6 558.5,386.4 532.8,393.7 449.8,417.4 409.2,429 383.5,436.3 
	355.1,444.4 355.1,683.6 314.5,695.2 314.5,413 "/>
<polygon class="st2" points="558.5,386.4 558.5,625.6 532.8,607.3 532.8,393.7 "/>
<polygon class="st3" points="449.8,29.2 449.8,226.2 409.2,237.7 409.2,83.7 383.5,91 205.8,141.7 205.8,295.7 165.2,307.3 
	165.2,110.3 205.8,98.8 409.2,40.8 "/>
<polygon class="st2" points="409.2,83.7 409.2,237.7 383.5,219.5 383.5,91 "/>
<polygon class="st4" points="599.1,331.9 314.5,413 165.2,307.3 205.8,295.7 205.8,270.2 383.5,219.5 409.2,237.7 449.8,226.2 "/>
</svg>
