<?xml version="1.0" encoding="utf-8"?>
<!-- Generator: Adobe Illustrator 24.1.3, SVG Export Plug-In . SVG Version: 6.00 Build 0)  -->
<svg version="1.1" id="Calque_3" xmlns="http://www.w3.org/2000/svg" xmlns:xlink="http://www.w3.org/1999/xlink" x="0px" y="0px"
	 viewBox="0 0 701.7 701.7" style="enable-background:new 0 0 701.7 701.7;" xml:space="preserve">
<style type="text/css">
	.st0{fill:#B8B8B8;}
	.st1{display:none;fill:none;stroke:#AFAFAF;stroke-width:35;stroke-linecap:round;stroke-linejoin:round;}
</style>
<path class="st0" d="M393.7,220.4V59.9c0-4.6-2.6-8.9-6.7-11.1l-19.6-10.4c-3.9-2.1-8.6-1.9-12.4,0.4L165.9,154.8
	c-3.7,2.3-6,6.3-6,10.7V545c0,4.5,2.4,8.7,6.3,10.9l16.3,9.3c4,2.2,8.8,2.2,12.7-0.2l11.9-7.2c3.6-2.2,5.8-6,6-10.2l3.3-127.3
	c0.3-9.6,10.9-15.2,19.1-10.2l93.3,57.4c3.7,2.3,6,6.4,6,10.7l-0.8,162c0,4.6,2.4,8.8,6.4,11l21.1,11.9c3.9,2.2,8.6,2.1,12.5-0.1
	l13.6-8c3.8-2.2,6.2-6.4,6.2-10.8V480.8c0-4.3,2.2-8.4,5.9-10.6l96.2-59.6c8.4-5.2,19.2,0.9,19.1,10.7l-0.7,126.2
	c0,4.6,2.5,8.9,6.6,11.1l20.2,10.8c3.8,2,8.3,2,12.1-0.1l10.9-6.1c3.9-2.2,6.4-6.4,6.4-10.9V344.8c0-4.3-2.2-8.3-5.9-10.6L399.5,231
	C395.9,228.7,393.7,224.7,393.7,220.4z M334,231.8l-97.5,57.1c-8.3,4.9-18.8-1.1-18.8-10.8c0-19.9,0.1-48.2,0.2-61.1
	c0-4.3,2.3-8.3,5.9-10.6l97.3-60.6c8.3-5.2,19.1,0.8,19.1,10.6V221C340.2,225.5,337.8,229.6,334,231.8z"/>
<path class="st1" d="M250.8,684.2h200c166.7,0,233.3-66.7,233.3-233.3v-200c0-166.7-66.7-233.3-233.3-233.3h-200
	C84.2,17.5,17.5,84.2,17.5,250.8v200C17.5,617.5,84.2,684.2,250.8,684.2z"/>
</svg>
