<?xml version="1.0" encoding="UTF-8"?>
<svg id="Calque_1" xmlns="http://www.w3.org/2000/svg" version="1.1" viewBox="0 0 60.55 17">
  <!-- Generator: Adobe Illustrator 29.8.2, SVG Export Plug-In . SVG Version: 2.1.1 Build 3)  -->
  <defs>
    <style>
      .st0 {
        isolation: isolate;
        opacity: .9;
      }

      .st0, .st1, .st2 {
        fill: #ec623d;
      }

      .st0, .st2 {
        fill-rule: evenodd;
      }
    </style>
  </defs>
  <g>
    <path class="st1" d="M24.86,17c-2.78.08-5.34-1.49-6.53-4-.65-1.4-.98-2.93-.94-4.47-.02-1.54.32-3.07,1-4.46.59-1.23,1.52-2.27,2.67-3C22.26.34,23.65-.03,25.06,0c1.52-.04,3.02.39,4.29,1.23,1.22.82,2.14,2.01,2.62,3.39l-1.93.73c-.36-1-1.02-1.87-1.89-2.49-.91-.61-1.99-.91-3.09-.88-1.03-.02-2.04.26-2.92.8-.85.55-1.51,1.33-1.92,2.25-.48,1.09-.71,2.27-.68,3.46-.03,1.19.2,2.37.68,3.46.4.93,1.07,1.72,1.92,2.27.88.54,1.89.82,2.92.8.59,0,1.18-.08,1.75-.24.6-.16,1.16-.44,1.65-.82.53-.43.95-.99,1.21-1.62.33-.82.49-1.71.46-2.6v-1.2l.47,1.41h-4.67v-1.87h6v8.62h-1.85l-.28-3.21.35.26c-.25.7-.67,1.34-1.22,1.84-.54.49-1.17.87-1.86,1.11-.72.22-1.46.31-2.21.29Z"/>
    <path class="st1" d="M35.17,16.71V5.09h2v3.12l-.52.11c.1-.66.37-1.28.79-1.8.4-.5.89-.9,1.46-1.19.51-.27,1.07-.42,1.64-.43.34,0,.67.04,1,.12.35.09.69.22,1,.4l-1,1.79c-.21-.1-.44-.18-.67-.23-.24-.06-.49-.09-.74-.1-.38,0-.76.08-1.12.22-.38.15-.72.37-1,.66-.32.34-.55.75-.68,1.2-.07.28-.12.57-.15.86-.05.48-.07.97-.06,1.45v5.44h-1.95Z"/>
    <path class="st1" d="M44.56,2.99V.28h2.36v2.71h-2.36ZM44.75,16.71V5.09h2v11.62h-2Z"/>
    <path class="st1" d="M54.86,16.91c-.98.02-1.95-.26-2.77-.79-.8-.54-1.44-1.29-1.85-2.16-.45-.96-.68-2.01-.66-3.07-.04-1.1.2-2.19.69-3.18.43-.86,1.09-1.58,1.91-2.08.81-.49,1.74-.74,2.68-.73,2.01-.02,3.78,1.33,4.29,3.28l-.56.38V.28h2v16.43h-2v-3.46l.66.21c-.2.65-.51,1.26-.92,1.8-.4.5-.9.92-1.47,1.21-.62.3-1.31.45-2,.44ZM55.19,15.07c.66.01,1.31-.17,1.86-.53.55-.37.98-.88,1.25-1.48.31-.68.46-1.42.45-2.17,0-.75-.15-1.5-.47-2.18-.27-.6-.71-1.11-1.25-1.47-.55-.36-1.2-.54-1.86-.53-.66-.01-1.31.17-1.87.53-.55.36-1,.87-1.28,1.47-.31.68-.47,1.42-.46,2.17-.01.75.15,1.49.46,2.17.28.6.73,1.11,1.28,1.48.56.36,1.21.55,1.87.54h.02Z"/>
  </g>
  <g id="Symbols">
    <g id="filter-_-grid">
      <g id="Group-3">
        <path id="Rectangle-4" class="st2" d="M1.96,3.98h0c1.1,0,2,.9,2,2h0c0,1.1-.9,2-2,2h0C.86,7.98-.04,7.08-.04,5.98H-.04c0-1.1.9-2,2-2h0Z"/>
        <path id="Rectangle-4-2" class="st0" d="M9.04,3.98h0c1.1,0,2,.9,2,2h0c0,1.1-.9,2-2,2h0c-1.1,0-2-.9-2-2h0c0-1.1.9-2,2-2h0Z"/>
        <path id="Rectangle-4-3" class="st2" d="M1.96,11.05h0c1.1,0,2,.9,2,2h0c0,1.1-.9,2-2,2h0C.86,15.05-.04,14.15-.04,13.05H-.04c0-1.1.9-2,2-2Z"/>
        <path id="Rectangle-4-4" class="st2" d="M9.04,11.05h0c1.1,0,2,.9,2,2h0c0,1.1-.9,2-2,2h0c-1.1,0-2-.9-2-2h0c0-1.1.9-2,2-2Z"/>
      </g>
    </g>
  </g>
</svg>