<svg id="Calque_1" data-name="Calque 1" xmlns="http://www.w3.org/2000/svg" viewBox="0 0 74.11 16.98"><defs><style>.cls-1{isolation:isolate;}.cls-2,.cls-3{fill:#afafaf;}.cls-3{fill-rule:evenodd;}</style></defs><g class="cls-1"><path class="cls-2" d="M19.59,17a6.18,6.18,0,0,1-4.06-1.3,5.45,5.45,0,0,1-1.93-3.44l2-.5A3.77,3.77,0,0,0,17,14.25a4.18,4.18,0,0,0,2.68.86,3.7,3.7,0,0,0,1.65-.35,2.82,2.82,0,0,0,1.16-1,2.63,2.63,0,0,0,.42-1.47,2.17,2.17,0,0,0-.47-1.44,4,4,0,0,0-1.31-1A19.28,19.28,0,0,0,19.17,9a16.36,16.36,0,0,1-2.4-1.13A4.84,4.84,0,0,1,15.18,6.4a3.71,3.71,0,0,1-.57-2.11,4,4,0,0,1,.62-2.21A4.2,4.2,0,0,1,17,.55,5.79,5.79,0,0,1,19.52,0a5.35,5.35,0,0,1,2.76.71,5.12,5.12,0,0,1,1.93,2.1l-1.65,1a4,4,0,0,0-1.32-1.47,3.2,3.2,0,0,0-1.79-.51A3.13,3.13,0,0,0,18,2.15,2.37,2.37,0,0,0,17,3a2.31,2.31,0,0,0-.35,1.25,2,2,0,0,0,.42,1.29,3.82,3.82,0,0,0,1.23.93c.53.27,1.18.54,1.93.83a14,14,0,0,1,2.48,1.18A4.91,4.91,0,0,1,24.36,10a3.85,3.85,0,0,1,.58,2.18,4.56,4.56,0,0,1-.68,2.47,4.74,4.74,0,0,1-1.89,1.71A5.9,5.9,0,0,1,19.59,17Z"/><path class="cls-2" d="M30,16.91a2.34,2.34,0,0,1-1.73-.66,2.87,2.87,0,0,1-.66-2.1V.28h2V13.77a1.41,1.41,0,0,0,.29,1,1,1,0,0,0,.75.31,2.79,2.79,0,0,0,.47-.05,4,4,0,0,0,.55-.14v1.7a5.18,5.18,0,0,1-1.65.33Z"/><path class="cls-2" d="M33.74,3V.28H36.1V3Zm.19,13.73V5.09h2V16.72Z"/><path class="cls-2" d="M44,16.91a4.92,4.92,0,0,1-2.77-.79A5.28,5.28,0,0,1,39.4,14a7,7,0,0,1-.66-3.07,6.78,6.78,0,0,1,.7-3.18,5.18,5.18,0,0,1,1.91-2.07A5,5,0,0,1,44,4.9a4.31,4.31,0,0,1,3.45,1.62,4.42,4.42,0,0,1,.84,1.66l-.57.38V.28h2V16.72h-2V13.25l.66.21a5.29,5.29,0,0,1-.92,1.8A4.26,4.26,0,0,1,44,16.91Zm.33-1.84a3.3,3.3,0,0,0,1.86-.53,3.56,3.56,0,0,0,1.25-1.48,5,5,0,0,0,.45-2.17,5,5,0,0,0-.45-2.17,3.54,3.54,0,0,0-1.25-1.47,3.3,3.3,0,0,0-1.86-.53,3.41,3.41,0,0,0-1.88.53A3.65,3.65,0,0,0,41.2,8.72a4.87,4.87,0,0,0-.46,2.17,4.84,4.84,0,0,0,.46,2.17,3.68,3.68,0,0,0,1.27,1.48A3.41,3.41,0,0,0,44.35,15.07Z"/><path class="cls-2" d="M58,16.91a5.89,5.89,0,0,1-2.39-.46,4.66,4.66,0,0,1-1.7-1.29,5.87,5.87,0,0,1-1-1.9A7.34,7.34,0,0,1,52.58,11a7.94,7.94,0,0,1,.33-2.3,6,6,0,0,1,1-1.95A4.68,4.68,0,0,1,55.53,5.4a5.1,5.1,0,0,1,2.31-.5,5.52,5.52,0,0,1,2.32.46,4.28,4.28,0,0,1,1.6,1.27,5.36,5.36,0,0,1,.93,1.79A6.7,6.7,0,0,1,63,10.47c0,.06,0,.21,0,.44a5.07,5.07,0,0,1-.06.6H54.56a3.9,3.9,0,0,0,1,2.64,3.31,3.31,0,0,0,2.5.94,4.44,4.44,0,0,0,1.77-.33,4.16,4.16,0,0,0,1.41-1.06l1.39,1.23a6.59,6.59,0,0,1-1.34,1.12,5.52,5.52,0,0,1-1.5.64A6.42,6.42,0,0,1,58,16.91Zm3-6.42a2.38,2.38,0,0,0,.06-.37c0-.13,0-.26,0-.38a3.41,3.41,0,0,0-.2-1.13,3.21,3.21,0,0,0-.59-1,2.72,2.72,0,0,0-1-.73,3.48,3.48,0,0,0-1.43-.27A3.09,3.09,0,0,0,55,8.3,4.27,4.27,0,0,0,54.54,10h7.14Z"/><path class="cls-2" d="M69.7,16.91a6,6,0,0,1-2.13-.36A5.21,5.21,0,0,1,66,15.61a5.13,5.13,0,0,1-1.07-1.25l1.39-1.18a3.68,3.68,0,0,0,1.33,1.47,3.73,3.73,0,0,0,2.11.58,3,3,0,0,0,1.77-.47,1.48,1.48,0,0,0,.66-1.27,1.35,1.35,0,0,0-.4-1,2.93,2.93,0,0,0-1.06-.61,14.57,14.57,0,0,0-1.44-.43,13.44,13.44,0,0,1-1.33-.4,5.52,5.52,0,0,1-1.22-.59,2.65,2.65,0,0,1-.87-.92,2.7,2.7,0,0,1-.33-1.39,2.8,2.8,0,0,1,1.12-2.32,4.59,4.59,0,0,1,2.93-.89A5.26,5.26,0,0,1,72,5.46a4,4,0,0,1,1.71,1.66l-1.27.94a2.89,2.89,0,0,0-1.24-1.19,3.91,3.91,0,0,0-1.69-.36A2.8,2.8,0,0,0,68,6.89a1.15,1.15,0,0,0-.61,1,1.12,1.12,0,0,0,.28.8,2.12,2.12,0,0,0,.84.52,10.17,10.17,0,0,0,1.35.4c.49.11,1,.25,1.49.4a6.75,6.75,0,0,1,1.39.62,2.9,2.9,0,0,1,1,1,3,3,0,0,1,.39,1.62,3.34,3.34,0,0,1-.55,1.91A3.5,3.5,0,0,1,72,16.46,5.6,5.6,0,0,1,69.7,16.91Z"/></g><path id="Rectangle-4" class="cls-3" d="M2,7.88H2a2,2,0,0,1,2,2h0a2,2,0,0,1-2,2H2a2,2,0,0,1-2-2H0A2,2,0,0,1,2,7.88Z"/></svg>