<?xml version="1.0" encoding="utf-8"?>
<!-- Generator: Adobe Illustrator 24.1.3, SVG Export Plug-In . SVG Version: 6.00 Build 0)  -->
<svg version="1.1" id="Calque_1" xmlns="http://www.w3.org/2000/svg" xmlns:xlink="http://www.w3.org/1999/xlink" x="0px" y="0px"
	 viewBox="0 0 800 800" style="enable-background:new 0 0 800 800;" xml:space="preserve">
<style type="text/css">
	.st0{fill:none;stroke:#AFAFAF;stroke-width:48;stroke-linecap:round;stroke-linejoin:round;stroke-miterlimit:128;}
</style>
<path class="st0" d="M280,24H88c-26.5,0-48,21.5-48,48v192c0,26.5,21.5,48,48,48h192c26.5,0,48-21.5,48-48V72
	C328,45.5,306.5,24,280,24z"/>
<path class="st0" d="M280,456H88c-26.5,0-48,21.5-48,48v192c0,26.5,21.5,48,48,48h192c26.5,0,48-21.5,48-48V504
	C328,477.5,306.5,456,280,456z"/>
<path class="st0" d="M712,24H520c-26.5,0-48,21.5-48,48v192c0,26.5,21.5,48,48,48h192c26.5,0,48-21.5,48-48V72
	C760,45.5,738.5,24,712,24z"/>
<path class="st0" d="M712,456H520c-26.5,0-48,21.5-48,48v192c0,26.5,21.5,48,48,48h192c26.5,0,48-21.5,48-48V504
	C760,477.5,738.5,456,712,456z"/>
</svg>
