<svg id="Calque_01" data-name="Calque 01" xmlns="http://www.w3.org/2000/svg" viewBox="0 0 226.83 315.33"><defs><style>.cls-1{fill:#afafaf;}</style></defs><path class="cls-1" d="M365.79,382,175.62,521.42A17.72,17.72,0,0,1,164.74,525a17.26,17.26,0,0,1-6.94-1.51,19.54,19.54,0,0,1-9.89-9.89,17.13,17.13,0,0,1-1.51-6.94,18.34,18.34,0,0,1,7.45-14.76L324,367.33,153.85,242.76A18.34,18.34,0,0,1,146.4,228a17.13,17.13,0,0,1,1.51-6.94,19.54,19.54,0,0,1,9.89-9.89,17.22,17.22,0,0,1,6.94-1.51,17.72,17.72,0,0,1,10.88,3.58L365.79,352.7a18.1,18.1,0,0,1,0,29.26Z" transform="translate(-146.4 -209.66)"/></svg>