<svg id="Calque_01" data-name="Calque 01" xmlns="http://www.w3.org/2000/svg" viewBox="0 0 226.83 315.33"><defs><style>.cls-1{fill:#afafaf;}</style></defs><path class="cls-1" d="M153.84,382,344,521.42A17.75,17.75,0,0,0,354.9,525a17.25,17.25,0,0,0,6.93-1.51,19.54,19.54,0,0,0,9.89-9.89,17.13,17.13,0,0,0,1.51-6.94,18.34,18.34,0,0,0-7.45-14.76L195.63,367.33,365.78,242.76A18.34,18.34,0,0,0,373.23,228a17.13,17.13,0,0,0-1.51-6.94,19.54,19.54,0,0,0-9.89-9.89,17.21,17.21,0,0,0-6.93-1.51A17.75,17.75,0,0,0,344,213.24L153.84,352.7a18.1,18.1,0,0,0,0,29.26Z" transform="translate(-146.4 -209.66)"/></svg>